<?xml version="1.0" encoding="UTF-8" standalone="no"?>
<!-- Created with Inkscape (http://www.inkscape.org/) -->

<svg
   version="1.1"
   id="svg1"
   width="788"
   height="593.46533"
   viewBox="0 0 788 593.46533"
   xmlns="http://www.w3.org/2000/svg"
   xmlns:svg="http://www.w3.org/2000/svg">
  <defs
     id="defs1">
    <clipPath
       clipPathUnits="userSpaceOnUse"
       id="clipPath5">
      <path
         d="M 0,445.099 H 591 V 0 H 0 Z"
         transform="translate(-79.690899,-252.91211)"
         id="path5" />
    </clipPath>
    <clipPath
       clipPathUnits="userSpaceOnUse"
       id="clipPath7">
      <path
         d="M 0,445.099 H 591 V 0 H 0 Z"
         transform="translate(-234.9619,-169.94821)"
         id="path7" />
    </clipPath>
    <clipPath
       clipPathUnits="userSpaceOnUse"
       id="clipPath9">
      <path
         d="M 0,445.099 H 591 V 0 H 0 Z"
         transform="translate(-421.28711,-252.83641)"
         id="path9" />
    </clipPath>
    <clipPath
       clipPathUnits="userSpaceOnUse"
       id="clipPath11">
      <path
         d="M 0,445.099 H 591 V 0 H 0 Z"
         transform="translate(-179.7651,-104.84671)"
         id="path11" />
    </clipPath>
    <clipPath
       clipPathUnits="userSpaceOnUse"
       id="clipPath13">
      <path
         d="M 0,445.099 H 591 V 0 H 0 Z"
         transform="translate(-214.33941,-98.9492)"
         id="path13" />
    </clipPath>
    <clipPath
       clipPathUnits="userSpaceOnUse"
       id="clipPath15">
      <path
         d="M 0,445.099 H 591 V 0 H 0 Z"
         transform="translate(-236.9248,-98.9492)"
         id="path15" />
    </clipPath>
    <clipPath
       clipPathUnits="userSpaceOnUse"
       id="clipPath17">
      <path
         d="M 0,445.099 H 591 V 0 H 0 Z"
         transform="translate(-259.75,-103.5527)"
         id="path17" />
    </clipPath>
    <clipPath
       clipPathUnits="userSpaceOnUse"
       id="clipPath19">
      <path
         d="M 0,445.099 H 591 V 0 H 0 Z"
         transform="translate(-290.67871,-97.6064)"
         id="path19" />
    </clipPath>
    <clipPath
       clipPathUnits="userSpaceOnUse"
       id="clipPath21">
      <path
         d="M 0,445.099 H 591 V 0 H 0 Z"
         id="path21" />
    </clipPath>
    <clipPath
       clipPathUnits="userSpaceOnUse"
       id="clipPath23">
      <path
         d="M 0,445.099 H 591 V 0 H 0 Z"
         transform="translate(-324.48441,-102.0176)"
         id="path23" />
    </clipPath>
    <clipPath
       clipPathUnits="userSpaceOnUse"
       id="clipPath25">
      <path
         d="M 0,445.099 H 591 V 0 H 0 Z"
         transform="translate(-347.21391,-100.43551)"
         id="path25" />
    </clipPath>
    <clipPath
       clipPathUnits="userSpaceOnUse"
       id="clipPath27">
      <path
         d="M 0,445.099 H 591 V 0 H 0 Z"
         id="path27" />
    </clipPath>
    <clipPath
       clipPathUnits="userSpaceOnUse"
       id="clipPath29">
      <path
         d="M 0,445.099 H 591 V 0 H 0 Z"
         transform="translate(-390.13091,-103.5527)"
         id="path29" />
    </clipPath>
    <clipPath
       clipPathUnits="userSpaceOnUse"
       id="clipPath31">
      <path
         d="M 0,445.099 H 591 V 0 H 0 Z"
         transform="translate(-427.15041,-91.708002)"
         id="path31" />
    </clipPath>
    <clipPath
       clipPathUnits="userSpaceOnUse"
       id="clipPath33">
      <path
         d="M 0,445.099 H 591 V 0 H 0 Z"
         transform="translate(-64.919902,-58.726601)"
         id="path33" />
    </clipPath>
    <clipPath
       clipPathUnits="userSpaceOnUse"
       id="clipPath35">
      <path
         d="M 0,445.099 H 591 V 0 H 0 Z"
         transform="translate(-87.457,-46.881799)"
         id="path35" />
    </clipPath>
    <clipPath
       clipPathUnits="userSpaceOnUse"
       id="clipPath37">
      <path
         d="M 0,445.099 H 591 V 0 H 0 Z"
         transform="translate(-133.58691,-46.881799)"
         id="path37" />
    </clipPath>
    <clipPath
       clipPathUnits="userSpaceOnUse"
       id="clipPath39">
      <path
         d="M 0,445.099 H 591 V 0 H 0 Z"
         transform="translate(-163.7007,-70.618204)"
         id="path39" />
    </clipPath>
    <clipPath
       clipPathUnits="userSpaceOnUse"
       id="clipPath41">
      <path
         d="M 0,445.099 H 591 V 0 H 0 Z"
         transform="translate(-177.2236,-46.881799)"
         id="path41" />
    </clipPath>
    <clipPath
       clipPathUnits="userSpaceOnUse"
       id="clipPath43">
      <path
         d="M 0,445.099 H 591 V 0 H 0 Z"
         transform="translate(-207.96091,-58.726601)"
         id="path43" />
    </clipPath>
    <clipPath
       clipPathUnits="userSpaceOnUse"
       id="clipPath45">
      <path
         d="M 0,445.099 H 591 V 0 H 0 Z"
         transform="translate(-227.71681,-58.630901)"
         id="path45" />
    </clipPath>
    <clipPath
       clipPathUnits="userSpaceOnUse"
       id="clipPath47">
      <path
         d="M 0,445.099 H 591 V 0 H 0 Z"
         transform="translate(-256.77591,-61.123999)"
         id="path47" />
    </clipPath>
    <clipPath
       clipPathUnits="userSpaceOnUse"
       id="clipPath49">
      <path
         d="M 0,445.099 H 591 V 0 H 0 Z"
         transform="translate(-293.79591,-57.192401)"
         id="path49" />
    </clipPath>
    <clipPath
       clipPathUnits="userSpaceOnUse"
       id="clipPath51">
      <path
         d="M 0,445.099 H 591 V 0 H 0 Z"
         transform="translate(-331.29491,-46.881799)"
         id="path51" />
    </clipPath>
    <clipPath
       clipPathUnits="userSpaceOnUse"
       id="clipPath53">
      <path
         d="M 0,445.099 H 591 V 0 H 0 Z"
         transform="translate(-359.58691,-80.304702)"
         id="path53" />
    </clipPath>
    <clipPath
       clipPathUnits="userSpaceOnUse"
       id="clipPath55">
      <path
         d="M 0,445.099 H 591 V 0 H 0 Z"
         transform="translate(-391.71391,-57.192401)"
         id="path55" />
    </clipPath>
    <clipPath
       clipPathUnits="userSpaceOnUse"
       id="clipPath57">
      <path
         d="M 0,445.099 H 591 V 0 H 0 Z"
         transform="translate(-428.20611,-70.618204)"
         id="path57" />
    </clipPath>
    <clipPath
       clipPathUnits="userSpaceOnUse"
       id="clipPath59">
      <path
         d="M 0,445.099 H 591 V 0 H 0 Z"
         transform="translate(-465.08111,-70.618204)"
         id="path59" />
    </clipPath>
    <clipPath
       clipPathUnits="userSpaceOnUse"
       id="clipPath61">
      <path
         d="M 0,445.099 H 591 V 0 H 0 Z"
         transform="translate(-481.91311,-61.123999)"
         id="path61" />
    </clipPath>
    <clipPath
       clipPathUnits="userSpaceOnUse"
       id="clipPath63">
      <path
         d="M 0,445.099 H 591 V 0 H 0 Z"
         transform="translate(-511.49902,-46.881799)"
         id="path63" />
    </clipPath>
    <clipPath
       clipPathUnits="userSpaceOnUse"
       id="clipPath65">
      <path
         d="M 0,445.099 H 591 V 0 H 0 Z"
         transform="translate(-541.99612,-54.123004)"
         id="path65" />
    </clipPath>
  </defs>
  <g
     id="layer-MC0"
     style="display:none" />
  <g
     id="layer-MC1" />
  <g
     id="layer-MC2">
    <g
       id="g5">
      <path
         id="path1"
         d="M 0,0 H 591 V 445.099 H 0 Z"
         style="fill:#196abd;fill-opacity:1;fill-rule:nonzero;stroke:none"
         transform="matrix(1.3333333,0,0,-1.3333333,0,593.46533)" />
      <path
         id="path2"
         d="M 0,0 H 518.923"
         style="fill:none;stroke:#ffffff;stroke-width:3;stroke-linecap:butt;stroke-linejoin:miter;stroke-miterlimit:3.864;stroke-dasharray:none;stroke-opacity:1"
         transform="matrix(1.3333333,0,0,-1.3333333,49.016267,403.42107)" />
      <path
         id="path3"
         d="M 0,0 H 518.925"
         style="fill:none;stroke:#ffffff;stroke-width:3;stroke-linecap:butt;stroke-linejoin:miter;stroke-miterlimit:3.864;stroke-dasharray:none;stroke-opacity:1"
         transform="matrix(1.3333333,0,0,-1.3333333,49.313867,557.66973)" />
      <path
         id="path4"
         d="m 0,0 c 7.293,19.457 19.818,51.568 19.818,51.568 2.533,6.801 11.398,7.595 14.594,0.346 0,0 11.7,-29.62 21.078,-52.557 4.954,-15.32 -1.138,-18.817 -9.982,-18.679 L 8.004,-19.315 C 4.545,-19.002 -7.131,-19.948 0,0 m -37.395,-90.116 c 0.88,-0.346 7.793,-0.682 11,7.216 6.601,19.803 11.779,35.792 11.779,35.792 0,0 2.718,11.895 19.492,11.806 0.085,0 48.698,0.128 48.698,0.089 -0.163,0.039 12.302,0.921 17.167,-9.5 6.948,-15.289 7.45,-15.604 14.399,-30.545 2.779,-5.559 7.993,-10.425 14.594,-12.856 6.256,-2.433 13.205,-1.739 19.455,1.044 10.079,5.209 16.155,16.164 14.251,29.183 -0.351,2.087 -1.043,4.172 -1.736,6.257 C 95.218,49.483 57.438,154.581 56.882,155.78 51.704,171.584 41.096,171.47 35.9,155.205 c 0,0 -39.71,-119.275 -77.237,-232.895 -3.032,-10.079 2.091,-11.697 3.942,-12.426"
         style="fill:#ffffff;fill-opacity:1;fill-rule:evenodd;stroke:none"
         transform="matrix(1.3333333,0,0,-1.3333333,106.25453,256.2492)"
         clip-path="url(#clipPath5)" />
      <path
         id="path6"
         d="m 0,0 c 5.195,-4.605 11.091,-6.73 18.71,-6.73 h 106.711 c 2.773,0 5.197,1.061 7.277,2.479 3.466,2.835 3.466,8.147 -0.694,11.337 -1.733,1.416 -4.157,2.124 -6.931,2.124 H 68.601 C 46.286,9.272 47.468,27.634 47.468,34.011 V 96.36 c 0,8.855 0.692,10.982 3.81,13.815 2.079,1.773 4.159,2.481 5.545,2.481 h 7.275 39.77 c 1.036,0 3.189,0.352 4.232,0.709 3.116,1.06 5.194,3.189 5.888,5.665 1.389,3.189 0.006,7.366 -3.459,9.137 -2.08,1.061 -4.767,1.528 -6.866,1.493 H 59.595 c -9.355,0 -12.471,3.189 -12.471,14.171 v 72.978 l 0.006,6.728 c -0.042,7.594 4.503,9.921 14.207,9.921 h 41.704 c 0,0 9.514,-0.388 9.501,7.783 -0.272,7.822 -10.331,7.097 -10.331,7.097 H 18.366 c -12.821,0 -22.519,-6.379 -25.984,-15.941 -1.044,-3.899 -1.737,-6.733 -1.737,-9.213 V 212.557 25.86 C -9.355,12.398 -6.926,6.377 0,0"
         style="fill:#ffffff;fill-opacity:1;fill-rule:evenodd;stroke:none"
         transform="matrix(1.3333333,0,0,-1.3333333,313.28253,366.86773)"
         clip-path="url(#clipPath7)" />
      <path
         id="path8"
         d="m 0,0 c 7.301,19.46 19.819,51.569 19.819,51.569 2.543,6.803 11.405,7.599 14.6,0.347 0,0 11.692,-29.621 21.079,-52.555 4.948,-15.326 -1.141,-18.818 -9.983,-18.681 L 8.004,-19.313 C 4.544,-19.003 -7.123,-19.943 0,0 m -37.389,-90.113 c 0.88,-0.346 7.793,-0.68 10.999,7.213 6.601,19.803 11.779,35.791 11.779,35.791 0,0 2.718,11.9 19.493,11.811 0.085,0 48.691,0.124 48.697,0.089 -0.162,0.035 12.305,0.921 17.169,-9.505 6.948,-15.284 7.448,-15.601 14.398,-30.544 2.78,-5.556 7.993,-10.423 14.594,-12.853 6.255,-2.436 13.205,-1.739 19.456,1.042 10.078,5.212 16.147,16.165 14.251,29.186 -0.35,2.086 -1.045,4.171 -1.744,6.254 -36.479,101.116 -74.26,206.211 -74.815,207.413 -5.176,15.805 -15.785,15.69 -20.981,-0.576 0,0 -39.716,-119.273 -77.238,-232.898 -3.031,-10.077 2.092,-11.693 3.942,-12.423"
         style="fill:#ffffff;fill-opacity:1;fill-rule:evenodd;stroke:none"
         transform="matrix(1.3333333,0,0,-1.3333333,561.71613,256.35013)"
         clip-path="url(#clipPath9)" />
      <text
         xml:space="preserve"
         style="font-size:58.6667px;line-height:1;fill:#ffffff"
         x="393.96048"
         y="469.15097"
         id="text1"><tspan
           style="font-style:normal;font-variant:normal;font-weight:bold;font-stretch:normal;font-size:58.6667px;line-height:1;font-family:'DejaVu Sans';-inkscape-font-specification:'DejaVu Sans Bold';text-align:center;text-anchor:middle"
           id="tspan5"
           x="393.96048"
           y="469.15097">Association of</tspan><tspan
           x="393.96048"
           y="529.29077"
           id="tspan2"
           style="font-style:normal;font-variant:normal;font-weight:bold;font-stretch:normal;font-size:58.6667px;line-height:1;font-family:'DejaVu Sans';-inkscape-font-specification:'DejaVu Sans Bold';text-align:center;text-anchor:middle">European Attorneys</tspan></text>
    </g>
  </g>
</svg>
